<?xml version="1.0" encoding="utf-8"?>
<!-- Generator: Adobe Illustrator 24.0.3, SVG Export Plug-In . SVG Version: 6.00 Build 0)  -->
<svg version="1.1" id="Livello_1" xmlns="http://www.w3.org/2000/svg" xmlns:xlink="http://www.w3.org/1999/xlink" x="0px" y="0px"
	 viewBox="0 0 113 38" style="enable-background:new 0 0 113 38;" xml:space="preserve">
<style type="text/css">
	.st0{fill-rule:evenodd;clip-rule:evenodd;fill:#001A4F;}
	.st1{fill-rule:evenodd;clip-rule:evenodd;fill:#64DE82;}
</style>
<g>
	<path class="st0" d="M45.4,25.3c0.8,0.4,1.6,0.7,2.7,0.7c4.1,0,5.3-2.2,5.3-4.6c0-2.2-2-4.2-5.8-4.2c-3.8,0-6.6,1.7-6.9,6.7
		c-0.3,3.9,2.3,7.2,6.9,7.2c5.8,0,5.2-4.7,5.2-4.7c-0.5,0.7-1.6,1.3-3.8,1.3C45.3,27.6,45.4,25.3,45.4,25.3L45.4,25.3z M45.4,22.5
		c0.1-0.5,0.3-1,0.5-1.4c0.1-0.3,0.3-0.4,0.5-0.7c0.5-0.3,1.1-0.5,1.6-0.4c0.4,0.1,0.8,0.4,1.1,0.8c0.1,0.4,0.1,0.8,0,1
		c-0.3,0.5-0.8,0.9-1.3,1c-0.7,0.1-1.6,0-2.3-0.1C45.4,22.8,45.4,22.7,45.4,22.5L45.4,22.5z M25.7,21.9c0-0.5,0-0.9-0.4-1.3
		c-0.7-0.5-1.3-0.3-2,0c-1.3,0.5-2-0.1-2.3-0.7c-0.3-0.5-0.4-1.7,0.4-2.2s1.9-1,3.6-1c4,0,5.3,2.1,5.3,5.6v3.1
		c0,0.9,0.7,1.6,1.6,1.6c1.3,0,1.7-1,1.7-1.6v-4.6c0-2.1-0.7-3-0.7-3s1.5-0.5,2.3-0.5s3,0,3,2v4.8c0,5.2,1.1,5.5,1.1,5.5
		s-1.3,1.3-3,1.3s-2.8-1.4-2.8-1.4c-0.7,0.8-1.7,1.4-3.2,1.4c-4,0-4.9-2.8-4.9-4.3C25.7,22.7,25.7,22.7,25.7,21.9z M22,28.2
		c0-0.1-0.1-0.1-0.3,0c-0.4,0.8-1.3,0.9-2.1,0.8c-0.3,0-0.5-0.3-0.7-0.5c-0.1-0.4-0.4-1-0.5-2.1c-0.3-2.1,0.1-4.3,0.4-6.7v-0.4
		c0,0,0.1-0.5,0-1.2c-0.4-1.4-2.5-1.4-3.3-1.4c-0.5,0-1.2,0.1-1.7,0.3c-0.4,0.1-0.7,0.4-0.4,0.8c0.3,0.4,0.5,1.2,0.5,2.1
		c0.1,1.6,0.5,6.5,0.8,7.3c0.5,2.1,1.5,3.8,4.2,4.1C21.7,31.3,22.2,29.1,22,28.2L22,28.2z"/>
	<path class="st0" d="M15.1,37.1c-0.4,0-0.8-0.1-1.3-0.3c-3.2-1.4-4.8-3-7-5.9c-2.3-2.9-4-6.2-5.2-10.1c-0.7-2.1-1.1-3.9-1.3-6
		c-0.3-2.8-0.1-5,0.5-7.1c0.1-0.5,2.1-8,10.2-6.8c2.8,0.4,4.9,1.6,6.2,3.5c0.5,0.8,1.1,2.1,1.2,3.1c0.1,1.4-0.1,2.8-0.9,3.8
		c-0.8,1-1.7,1-2.3,0.9c-0.4-0.1-0.7-0.4-0.9-0.7c-0.1-0.1-0.3-0.3-0.5-0.4c-1.1-0.7-2.5-0.5-3.3,0c-0.7,0.4-1.3,1.2-1.7,2.1
		c-0.8,1.8-1.1,4.5-0.8,6.3c1.1-0.3,2.8-0.4,3.6,0.5c0.4,0.4,0.9,1.6,0.3,2.4c-0.3,0.4-0.8,0.4-1.2,0.5h-0.1
		c-0.7,0.1-1.3,0.3-1.9,0.5c0.7,2.5,1.6,4.8,2.9,7.1c0.5,0.9,1.2,1.7,1.9,2.5c0.5,0.7,1.1,1.3,1.9,1.8c0.7,0.5,1.5,0.9,1.1,1.7
		c-0.1,0.3-0.3,0.5-0.7,0.7C15.5,37.1,15.3,37.1,15.1,37.1L15.1,37.1z M79.7,17.8c-0.4,0.3-1.2,0.4-2.4,0.5c-0.8,0-1.2,0-1.2-0.7
		v-2.9c0-1.8-1.5-2.5-3.2-2.4c-1.7,0.1-2.4,0.9-2.4,0.9s0.5,0.7,0.5,1.7v11.8c0,2,1.5,3.7,3.3,4.2c0.4,0.1,0.8,0.1,1.2,0.1h0.3
		c2.1-0.1,3.8-1.7,4.1-3.8v-0.5c0-0.3,0-0.5-0.1-0.5c-0.1-0.1-0.1,0-0.1,0c-0.3,0.7-0.9,1-1.7,1h-0.5c-0.7-0.1-1.2-0.7-1.3-1.3
		c0-0.3,0-0.4-0.1-0.7v-2.6c0.1-0.1,0.3,0,0.4,0c0.8,0,2.8-0.1,3.4-1.3c0,0,0.3-0.5,0.3-1.4v-1.6C80.3,17.9,80,17.8,79.7,17.8
		L79.7,17.8z M82.3,19.5c0-0.5,0.1-1,0.4-1.4c0.4-0.5,1.1-1,2.4-1c1.1,0,1.7,0.1,2.1,0.3v11c0,1.3-0.8,2.5-2.7,2.5
		c-1.1,0-1.9-0.3-2.3-0.5L82.3,19.5L82.3,19.5z"/>
	<ellipse class="st0" cx="84.8" cy="13.2" rx="2.3" ry="2.2"/>
	<path class="st0" d="M64,28.3c0,0.8,0.8,2.6,2.6,2.6c1.9,0,2.8-0.9,2.8-0.9s-0.5-0.8-0.5-1.8V22c0-3.1-2.1-4.7-4.9-4.7
		c-2.8,0-3.4,1.8-3.4,1.8c0-0.3-0.1-0.8-0.5-1.2c-0.4-0.4-0.9-0.8-1.9-0.8c-2,0-3.4,1.2-3.4,1.2s0.9,1.2,0.9,2.9v7.2
		c0,0.8,0.8,2.6,2.7,2.6c1.9,0,2.8-0.9,2.8-0.9s-0.5-0.8-0.5-1.8v-5.5c0-0.9,0.8-1.6,1.6-1.6c0.9,0,1.6,0.8,1.6,1.6L64,28.3L64,28.3
		z M98.6,11.7c-0.5,0.3-1.6,0.5-3,0.5c-2.3,0-3.7,0.8-4.5,2c-0.7,1-0.9,2.4-0.9,3.8v10.2c0,1-0.5,1.8-0.5,1.8s0.9,0.9,2.8,0.9
		c1.9,0,2.7-1.7,2.7-2.6v-5.5c0-0.1,0.1-0.1,0.4-0.3c0.8-0.1,1.7-0.5,2.1-1.2c0,0,0.3-0.5,0.3-1.4v-1.6c0-0.3-0.3-0.4-0.5-0.3
		c-0.4,0.1-1.2,0.4-2.3,0.5v-0.9c0-0.7,0.4-1.2,0.9-1.3c0.9,0,2.4-0.4,2.8-1.3c0,0,0.3-0.5,0.3-1.4v-1.6
		C99,11.7,98.7,11.5,98.6,11.7L98.6,11.7z M104.7,19.3v6.2c0,0.9,0.8,1.7,1.6,1.7c0.9,0,1.6-0.8,1.6-1.7V21c0-2.1-0.7-3-0.7-3
		s1.6-0.5,2.4-0.5h0.3c0.9,0,2.9,0.3,2.9,2.1V31c0,1-0.3,2-0.7,2.9c-1.2,2.4-3.6,3.8-6.4,3.7c-1.2-0.1-2.3-0.5-3.2-1.3
		c-0.7-0.7-1.2-1.7-1.3-2.6c0-0.1,0-0.1,0.1-0.1h0.1c0.4,0.4,0.8,0.7,1.3,0.8c0.3,0.1,0.7,0.1,0.9,0.1h0.3c0.9,0,1.9-0.3,2.5-0.9
		c0.7-0.7,1.2-1.6,1.2-2.6v-1.2c-0.7,0.7-1.5,1.3-3.3,1.3c-3.8-0.1-4.8-2.8-4.8-4.3V21c0-1.4-0.3-2.4-0.5-2.8
		c-0.1-0.1,0-0.4,0.1-0.4c0.5-0.1,1.5-0.4,2-0.5h0.7C103.1,17.3,104.6,17.6,104.7,19.3L104.7,19.3z"/>
	<path class="st1" d="M23.3,32.8c-0.3-0.9-0.8-0.9-1.2-0.5c-0.4,0.4-1.5,1-2.4,1.3c-0.9,0.3-1.1,0.3-1.1,0.7s0.8,0.7,1.1,0.8
		c0.7,0.4,1.2,1,1.2,1.7c0,0.7,0.7,0.5,0.9,0.3C22.6,36.2,23.7,34.8,23.3,32.8L23.3,32.8z"/>
</g>
</svg>
